<svg xmlns:dc="http://purl.org/dc/elements/1.1/" xmlns:cc="http://creativecommons.org/ns#" xmlns:rdf="http://www.w3.org/1999/02/22-rdf-syntax-ns#" xmlns:svg="http://www.w3.org/2000/svg" xmlns="http://www.w3.org/2000/svg" xmlns:sodipodi="http://sodipodi.sourceforge.net/DTD/sodipodi-0.dtd" xmlns:inkscape="http://www.inkscape.org/namespaces/inkscape" version="1.1" x="0px" y="0px" viewBox="0 0 100 125"><g transform="translate(0,-952.36218)"><path style="text-indent:0;text-transform:none;direction:ltr;block-progression:tb;baseline-shift:baseline;color:#000000;enable-background:accumulate;" d="m 49.946123,970.36242 c -0.41963,0.009 -0.81113,0.14803 -1.1875,0.40625 l -38,30.00003 c -0.8742896,0.7021 -0.9983296,1.9978 -0.34375,2.8437 0.64516,0.8338 2.01747,0.9673 2.84375,0.3125 l 36.75,-28.99998 36.75,28.99998 c 0.82628,0.6548 2.16085,0.5162 2.8125,-0.3125 0.64676,-0.8225 0.57722,-2.1888 -0.3125,-2.8437 l -38,-30.00003 c -0.44511,-0.29323 -0.89287,-0.415 -1.3125,-0.40625 z m -24.9375,26.90625 -4,3.15623 0,31.9375 a 2.0001999,2.0001999 0 0 0 2,2 l 19,0 a 2.0001999,2.0001999 0 0 0 2,-2 l 0,-18 12,0 0,18 a 2.0001999,2.0001999 0 0 0 2,2 l 19,0 a 2.0001999,2.0001999 0 0 0 2,-2 l 0,-31.9375 -4,-3.15623 0,33.09373 -15,0 0,-18 a 2.0001999,2.0001999 0 0 0 -2,-2 l -16,0 a 2.0001999,2.0001999 0 0 0 -2,2 l 0,18 -15,0 0,-33.09373 z" fill="#FFFFFF" fill-opacity="1" stroke="none" marker="none" visibility="visible" display="inline" overflow="visible"/></g>></svg>